<?xml version="1.0" encoding="UTF-8" standalone="no"?><!DOCTYPE svg PUBLIC "-//W3C//DTD SVG 1.1//EN" "http://www.w3.org/Graphics/SVG/1.1/DTD/svg11.dtd"><svg width="100%" height="100%" viewBox="0 0 1099 623" version="1.1" xmlns="http://www.w3.org/2000/svg" xmlns:xlink="http://www.w3.org/1999/xlink" xml:space="preserve" xmlns:serif="http://www.serif.com/" style="fill-rule:evenodd;clip-rule:evenodd;stroke-linejoin:round;stroke-miterlimit:2;"><g><g><path d="M342.786,56.571l116.856,436.111c5.902,22.028 -7.19,44.704 -29.218,50.607l-250.606,67.15c-22.028,5.902 -44.704,-7.19 -50.607,-29.218l-116.856,-436.111c-5.902,-22.028 7.19,-44.704 29.218,-50.607l250.606,-67.15c22.028,-5.902 44.704,7.19 50.607,29.218Z" style="fill:#ffd700;"/><path d="M294.475,26.807c21.287,-4.436 42.614,8.501 48.311,29.764l116.856,436.111c5.902,22.028 -7.19,44.704 -29.218,50.607l-147.369,39.487c73.909,-99.149 98.523,-266.01 53.314,-438.908c-10.85,-41.494 -25.036,-80.716 -41.894,-117.062Z" style="fill:#e0822a;"/><path d="M353.351,53.74l116.856,436.111c7.465,27.859 -9.093,56.537 -36.952,64.002l-250.606,67.15c-27.859,7.465 -56.537,-9.093 -64.002,-36.952l-116.856,-436.111c-7.465,-27.859 9.093,-56.537 36.952,-64.002l250.606,-67.15c27.859,-7.465 56.537,9.093 64.002,36.952Zm-21.13,5.662c-4.34,-16.197 -21.014,-25.824 -37.211,-21.484l-250.606,67.15c-16.197,4.34 -25.824,21.014 -21.484,37.211l116.856,436.111c4.34,16.197 21.014,25.824 37.211,21.484l250.606,-67.15c16.197,-4.34 25.824,-21.014 21.484,-37.211l-116.856,-436.111Z" style="fill:#240143;"/><path d="M156.13,566.171l-112.937,-421.486c-3.047,-11.37 3.711,-23.075 15.081,-26.121l231.472,-62.023c11.37,-3.047 23.075,3.711 26.121,15.081l112.937,421.486c3.047,11.37 -3.711,23.075 -15.081,26.121l-231.472,62.023c-11.37,3.047 -23.075,-3.711 -26.121,-15.081Zm9.056,-2.426c1.707,6.372 8.267,10.16 14.639,8.452l231.472,-62.023c6.372,-1.707 10.16,-8.267 8.452,-14.639l-112.937,-421.486c-1.707,-6.372 -8.267,-10.16 -14.639,-8.452l-231.472,62.023c-6.372,1.707 -10.16,8.267 -8.452,14.639l112.937,421.486Z" style="fill:#240143;"/><path d="M287.299,202.322c-21.385,-7.936 -52.479,-10.699 -83.198,-2.468c-30.719,8.231 -56.266,26.171 -70.818,43.737c-11.388,-42.502 13.872,-86.254 56.374,-97.642c42.502,-11.388 86.254,13.872 97.642,56.374Z" style="fill:#240143;"/><path d="M245.937,352.443l-24.537,-37.783l-43.516,11.66l28.352,-35.011l-24.537,-37.783l42.059,16.145l28.352,-35.011l-2.358,44.99l42.059,16.145l-43.516,11.66l-2.358,44.99Z" style="fill:#240143;"/></g><g><path d="M378.113,503.753l0,-451.496c0,-22.805 18.515,-41.32 41.32,-41.32l259.447,0c22.805,0 41.32,18.515 41.32,41.32l-0,451.496c0,22.805 -18.515,41.32 -41.32,41.32l-259.447,0c-22.805,0 -41.32,-18.515 -41.32,-41.32Z" style="fill:#ffd700;"/><path d="M689.538,12.328c17.647,4.705 30.662,20.81 30.662,39.93l-0,451.496c0,22.805 -18.515,41.32 -41.32,41.32l-250.389,-0c152.862,-75.712 261.812,-270.961 261.812,-499.636c0,-11.119 -0.258,-22.159 -0.765,-33.11Z" style="fill:#e0822a;"/><path d="M367.176,503.753l-0,-451.496c0,-28.842 23.416,-52.258 52.258,-52.258l259.447,-0c28.842,0 52.258,23.416 52.258,52.258l0,451.496c0,28.842 -23.416,52.258 -52.258,52.258l-259.447,0c-28.842,0 -52.258,-23.416 -52.258,-52.258Zm21.875,-0c0,16.769 13.614,30.383 30.383,30.383l259.447,-0c16.769,0 30.383,-13.614 30.383,-30.383l0,-451.496c0,-16.769 -13.614,-30.383 -30.383,-30.383l-259.447,0c-16.769,0 -30.383,13.614 -30.383,30.383l0,451.496Z" style="fill:#240143;"/><path d="M408.01,496.183l0,-436.355c0,-11.771 9.557,-21.328 21.328,-21.328l239.637,0c11.771,0 21.328,9.557 21.328,21.328l-0,436.355c0,11.771 -9.557,21.328 -21.328,21.328l-239.637,0c-11.771,0 -21.328,-9.557 -21.328,-21.328Zm9.375,-0c0,6.597 5.356,11.953 11.953,11.953l239.637,-0c6.597,0 11.953,-5.356 11.953,-11.953l0,-436.355c0,-6.597 -5.356,-11.953 -11.953,-11.953l-239.637,0c-6.597,0 -11.953,5.356 -11.953,11.953l-0,436.355Z" style="fill:#240143;"/><path d="M463.657,399.83c19.95,14.157 51.393,25.65 85.5,25.65c34.107,0 65.55,-11.493 85.5,-25.65c0,47.189 -38.311,85.5 -85.5,85.5c-47.189,0 -85.5,-38.311 -85.5,-85.5Z" style="fill:#240143;"/><path d="M548.239,270.793l12.74,39.209l41.227,0l-33.353,24.233l12.74,39.209l-33.353,-24.233l-33.353,24.233l12.74,-39.209l-33.353,-24.233l41.227,-0l12.74,-39.209Z" style="fill:#240143;"/></g><g><path d="M1085.958,145.11l-116.856,436.111c-5.902,22.028 -28.578,35.12 -50.607,29.218l-250.606,-67.15c-22.028,-5.902 -35.12,-28.578 -29.218,-50.607l116.856,-436.111c5.902,-22.028 28.578,-35.12 50.607,-29.218l250.606,67.15c22.028,5.902 35.12,28.578 29.218,50.607Z" style="fill:#ffd700;"/><path d="M978.193,73.456l78.548,21.047c22.028,5.902 35.12,28.578 29.218,50.607l-116.856,436.111c-5.902,22.028 -28.578,35.12 -50.607,29.218l-143.215,-38.374c78.922,-66.815 144.119,-166.993 178.703,-287.472c20.714,-72.162 28.255,-143.976 24.21,-211.136Z" style="fill:#e0822a;"/><path d="M1096.523,147.941l-116.856,436.111c-7.465,27.859 -36.143,44.416 -64.002,36.952l-250.606,-67.15c-27.859,-7.465 -44.416,-36.143 -36.952,-64.002l116.856,-436.111c7.465,-27.859 36.143,-44.416 64.002,-36.952l250.606,67.15c27.859,7.465 44.416,36.143 36.952,64.002Zm-21.13,-5.662c4.34,-16.197 -5.287,-32.871 -21.484,-37.211l-250.606,-67.15c-16.197,-4.34 -32.871,5.287 -37.211,21.484l-116.856,436.111c-4.34,16.197 5.287,32.871 21.484,37.211l250.606,67.15c16.197,4.34 32.871,-5.287 37.211,-21.484l116.856,-436.111Z" style="fill:#240143;"/><path d="M669.51,493.108l112.937,-421.486c3.047,-11.37 14.751,-18.128 26.121,-15.081l231.472,62.023c11.37,3.047 18.128,14.751 15.081,26.121l-112.937,421.486c-3.047,11.37 -14.751,18.128 -26.121,15.081l-231.472,-62.023c-11.37,-3.047 -18.128,-14.751 -15.081,-26.121Zm9.056,2.426c-1.707,6.372 2.08,12.932 8.452,14.639l231.472,62.023c6.372,1.707 12.932,-2.08 14.639,-8.452l112.937,-421.486c1.707,-6.372 -2.08,-12.932 -8.452,-14.639l-231.472,-62.023c-6.372,-1.707 -12.932,2.08 -14.639,8.452l-112.937,421.486Z" style="fill:#240143;"/><path d="M965.03,243.59c-14.552,-17.565 -40.099,-35.505 -70.818,-43.737c-30.719,-8.231 -61.813,-5.468 -83.198,2.468c11.388,-42.502 55.14,-67.762 97.642,-56.374c42.502,11.388 67.762,55.14 56.374,97.642Z" style="fill:#240143;"/><path d="M854.149,352.918l-3.19,-44.316c0,0 -42.679,-12.225 -42.684,-12.334l41.161,-16.728c0,0 -1.562,-44.368 -1.46,-44.407l28.629,33.977c0,0 41.713,-15.195 41.782,-15.111l-23.468,37.727c0,0 27.342,34.976 27.283,35.068l-43.133,-10.661c0,0 -24.815,36.812 -24.92,36.784Z" style="fill:#240143;"/></g></g></svg>